<?xml version="1.0" encoding="UTF-8" standalone="no"?>
<!-- Created with Inkscape (http://www.inkscape.org/) -->

<svg
   xmlns:dc="http://purl.org/dc/elements/1.1/"
   xmlns:cc="http://creativecommons.org/ns#"
   xmlns:rdf="http://www.w3.org/1999/02/22-rdf-syntax-ns#"
   xmlns:svg="http://www.w3.org/2000/svg"
   xmlns="http://www.w3.org/2000/svg"
   xmlns:sodipodi="http://sodipodi.sourceforge.net/DTD/sodipodi-0.dtd"
   xmlns:inkscape="http://www.inkscape.org/namespaces/inkscape"
   width="1366"
   height="768"
   viewBox="0 0 1366 768.00001"
   id="svg4160"
   version="1.1"
   inkscape:version="0.91 r13725"
   inkscape:export-filename="/home/mario/Dropbox/Codes/Sfml/Fastwriter/res/textures/starting.png"
   inkscape:export-xdpi="90"
   inkscape:export-ydpi="90"
   sodipodi:docname="starting.svg">
  <defs
     id="defs4162">
    <filter
       inkscape:collect="always"
       style="color-interpolation-filters:sRGB"
       id="filter8605"
       x="-0.028268576"
       width="1.0565372"
       y="-0.15893961"
       height="1.3178792">
      <feGaussianBlur
         inkscape:collect="always"
         stdDeviation="16.089531"
         id="feGaussianBlur8607" />
    </filter>
  </defs>
  <sodipodi:namedview
     id="base"
     pagecolor="#ffffff"
     bordercolor="#666666"
     borderopacity="1.0"
     inkscape:pageopacity="0.0"
     inkscape:pageshadow="2"
     inkscape:zoom="0.49497474"
     inkscape:cx="571.7305"
     inkscape:cy="394.86076"
     inkscape:document-units="px"
     inkscape:current-layer="layer1"
     showgrid="false"
     units="px"
     inkscape:window-width="1366"
     inkscape:window-height="723"
     inkscape:window-x="0"
     inkscape:window-y="22"
     inkscape:window-maximized="0" />
  <metadata
     id="metadata4165">
    <rdf:RDF>
      <cc:Work
         rdf:about="">
        <dc:format>image/svg+xml</dc:format>
        <dc:type
           rdf:resource="http://purl.org/dc/dcmitype/StillImage" />
        <dc:title></dc:title>
      </cc:Work>
    </rdf:RDF>
  </metadata>
  <g
     inkscape:label="Capa 1"
     inkscape:groupmode="layer"
     id="layer1"
     transform="translate(0,-284.36216)">
    <rect
       y="284.36215"
       x="-0.00013176628"
       height="768"
       width="1366"
       id="rect5791"
       style="opacity:1;fill:#000000;fill-opacity:0.8627451;stroke:none" />
    <path
       style="opacity:1;fill:#000000;fill-opacity:1;stroke:none;filter:url(#filter8605)"
       d="M 672.56045,546.88756 A 135.12292,122 0 0 0 549.37881,660.36217 l -549.37893493034,0 0,16 549.44924493034,0 a 135.12292,122 0 0 0 123.11133,113.47852 l 0,-8.00196 A 114,114 0 0 1 568.9999,668.36217 114,114 0 0 1 672.56045,554.93639 l 0,-8.04883 z m 6.43945,0 0,8.04883 A 114,114 0 0 1 782.56045,668.36217 114,114 0 0 1 678.9999,781.83873 l 0,8.00196 A 135.12292,122 0 0 0 802.11123,676.36217 l 563.88867,0 0,-16 -563.81836,0 A 135.12292,122 0 0 0 678.9999,546.88756 Z"
       id="path8510"
       inkscape:connector-curvature="0" />
    <path
       style="opacity:1;fill:#535353;fill-opacity:1;stroke:none"
       d="m -1.2493034e-4,660.36217 0,16 561.66994493034,0 a 114.92893,122 0 0 1 -0.57031,-11.11328 114.92893,122 0 0 1 0.23047,-4.88672 l -561.33010493034,0 z m 790.79494493034,0 a 114.92893,122 0 0 1 0.16211,4.88672 114.92893,122 0 0 1 -0.52344,11.11328 l 575.56641,0 0,-16 -575.20508,0 z"
       id="rect8477"
       inkscape:connector-curvature="0" />
    <path
       style="opacity:1;fill:#535353;fill-opacity:1;stroke:none;stroke-width:1.33800006;stroke-miterlimit:4;stroke-dasharray:none;stroke-opacity:1"
       d="M 672.56045,546.88756 A 135.12292,122 0 0 0 548.9999,668.36217 135.12292,122 0 0 0 672.56045,789.84069 l 0,-8.00196 A 114,114 0 0 1 568.9999,668.36217 114,114 0 0 1 672.56045,554.93639 l 0,-8.04883 z"
       id="circle8451"
       inkscape:connector-curvature="0" />
    <path
       id="path8504"
       d="M 678.9999,546.88756 A 135.12292,122 0 0 1 802.56045,668.36217 135.12292,122 0 0 1 678.9999,789.84069 l 0,-8.00196 A 114,114 0 0 0 782.56045,668.36217 114,114 0 0 0 678.9999,554.93639 l 0,-8.04883 z"
       style="opacity:1;fill:#535353;fill-opacity:1;stroke:none;stroke-width:1.33800006;stroke-miterlimit:4;stroke-dasharray:none;stroke-opacity:1"
       inkscape:connector-curvature="0" />
  </g>
</svg>
