<?xml version="1.0" encoding="UTF-8" standalone="no"?>
<!-- Created with Inkscape (http://www.inkscape.org/) -->

<svg
   xmlns:dc="http://purl.org/dc/elements/1.1/"
   xmlns:cc="http://creativecommons.org/ns#"
   xmlns:rdf="http://www.w3.org/1999/02/22-rdf-syntax-ns#"
   xmlns:svg="http://www.w3.org/2000/svg"
   xmlns="http://www.w3.org/2000/svg"
   xmlns:sodipodi="http://sodipodi.sourceforge.net/DTD/sodipodi-0.dtd"
   xmlns:inkscape="http://www.inkscape.org/namespaces/inkscape"
   width="315.35101"
   height="272.74399"
   viewBox="0 0 315.35101 272.74399"
   id="svg4160"
   version="1.1"
   inkscape:version="0.91 r13725"
   inkscape:export-filename="/home/mario/Dropbox/Codes/Sfml/Fastwriter/res/textures/starting.png"
   inkscape:export-xdpi="90"
   inkscape:export-ydpi="90"
   sodipodi:docname="starting.svg">
  <defs
     id="defs4162">
    <filter
       inkscape:collect="always"
       style="color-interpolation-filters:sRGB"
       id="filter5114"
       x="-0.12055151"
       width="1.2411031"
       y="-0.061309811"
       height="1.1226196">
      <feGaussianBlur
         inkscape:collect="always"
         stdDeviation="6.206421"
         id="feGaussianBlur5116" />
    </filter>
    <filter
       inkscape:collect="always"
       style="color-interpolation-filters:sRGB"
       id="filter5110"
       x="-0.12055151"
       width="1.2411031"
       y="-0.061309811"
       height="1.1226196">
      <feGaussianBlur
         inkscape:collect="always"
         stdDeviation="6.206421"
         id="feGaussianBlur5112" />
    </filter>
  </defs>
  <sodipodi:namedview
     id="base"
     pagecolor="#ffffff"
     bordercolor="#666666"
     borderopacity="1.0"
     inkscape:pageopacity="0.0"
     inkscape:pageshadow="2"
     inkscape:zoom="0.49497474"
     inkscape:cx="644.46148"
     inkscape:cy="394.86076"
     inkscape:document-units="px"
     inkscape:current-layer="layer1"
     showgrid="false"
     units="px"
     inkscape:window-width="1366"
     inkscape:window-height="723"
     inkscape:window-x="0"
     inkscape:window-y="22"
     inkscape:window-maximized="0" />
  <metadata
     id="metadata4165">
    <rdf:RDF>
      <cc:Work
         rdf:about="">
        <dc:format>image/svg+xml</dc:format>
        <dc:type
           rdf:resource="http://purl.org/dc/dcmitype/StillImage" />
        <dc:title></dc:title>
      </cc:Work>
    </rdf:RDF>
  </metadata>
  <g
     inkscape:label="Capa 1"
     inkscape:groupmode="layer"
     id="layer1"
     transform="translate(0,-779.61815)">
    <g
       id="g5214"
       transform="translate(-702.81185,526.2881)">
      <path
         style="opacity:1;fill:#000000;fill-opacity:1;stroke:none;stroke-width:1.33800006;stroke-miterlimit:4;stroke-dasharray:none;stroke-opacity:1;filter:url(#filter5110)"
         d="M 841.26781,268.22552 A 135.12292,122 0 0 0 717.70726,389.70013 135.12292,122 0 0 0 841.26781,511.17865 l 0,-8.00196 A 114,114 0 0 1 737.70726,389.70013 114,114 0 0 1 841.26781,276.27435 l 0,-8.04883 z"
         id="path5106"
         inkscape:connector-curvature="0" />
      <path
         inkscape:connector-curvature="0"
         id="circle8451"
         d="M 841.26781,268.22552 A 135.12292,122 0 0 0 717.70726,389.70013 135.12292,122 0 0 0 841.26781,511.17865 l 0,-8.00196 A 114,114 0 0 1 737.70726,389.70013 114,114 0 0 1 841.26781,276.27435 l 0,-8.04883 z"
         style="opacity:1;fill:#535353;fill-opacity:1;stroke:none;stroke-width:1.33800006;stroke-miterlimit:4;stroke-dasharray:none;stroke-opacity:1" />
      <path
         id="path5108"
         d="M 847.70726,268.22552 A 135.12292,122 0 0 1 971.26781,389.70013 135.12292,122 0 0 1 847.70726,511.17865 l 0,-8.00196 A 114,114 0 0 0 951.26781,389.70013 114,114 0 0 0 847.70726,276.27435 l 0,-8.04883 z"
         style="opacity:1;fill:#000000;fill-opacity:1;stroke:none;stroke-width:1.33800006;stroke-miterlimit:4;stroke-dasharray:none;stroke-opacity:1;filter:url(#filter5114)"
         inkscape:connector-curvature="0" />
      <path
         inkscape:connector-curvature="0"
         style="opacity:1;fill:#535353;fill-opacity:1;stroke:none;stroke-width:1.33800006;stroke-miterlimit:4;stroke-dasharray:none;stroke-opacity:1"
         d="M 847.70726,268.22552 A 135.12292,122 0 0 1 971.26781,389.70013 135.12292,122 0 0 1 847.70726,511.17865 l 0,-8.00196 A 114,114 0 0 0 951.26781,389.70013 114,114 0 0 0 847.70726,276.27435 l 0,-8.04883 z"
         id="path8504" />
    </g>
    <rect
       y="779.61816"
       x="283.35101"
       height="32"
       width="32"
       id="rect5791"
       style="opacity:1;fill:#000000;fill-opacity:0.8627451;stroke:none" />
  </g>
</svg>
